<svg width="42" height="35" viewBox="0 0 42 35" fill="none" xmlns="http://www.w3.org/2000/svg">
<path d="M16.3613 0L12.04 7.52523L13.4805 10.12L16.3613 5.35197L23.904 17.8133L25.431 15.472L16.3613 0Z" fill="url(#paint0_linear_218_370)"/>
<path d="M16.3467 0.0283203H25.3875L34.512 15.3665H25.3875L16.3467 0.0283203Z" fill="url(#paint1_linear_218_370)"/>
<path d="M25.3874 15.3662L23.8662 17.7844H33.2448L34.512 15.3662H25.3874Z" fill="url(#paint2_linear_218_370)"/>
<path d="M16.3613 5.35156L13.4805 10.1196H19.2479L16.3613 5.35156Z" fill="url(#paint3_linear_218_370)"/>
<path d="M34.44 19.7217H37.6499L42 27.2668H24.0887L22.4404 24.766H37.4594L34.44 19.7217Z" fill="url(#paint4_linear_218_370)"/>
<path d="M34.4399 19.7217L31.5244 24.766H37.4593L34.4399 19.7217Z" fill="url(#paint5_linear_218_370)"/>
<path d="M22.4403 24.7656L24.0885 27.2664L19.3574 34.9369L17.7524 32.3535L22.4403 24.7656Z" fill="url(#paint6_linear_218_370)"/>
<path d="M41.9999 27.2666H24.0886L19.3574 34.9371H37.4593L41.9999 27.2666Z" fill="url(#paint7_linear_218_370)"/>
<path d="M9.25155 11.9912L13.6854 19.7443L4.50021 34.9998L0 27.1841L9.25155 11.9912Z" fill="url(#paint8_linear_218_370)"/>
<path d="M12.2304 11.9912H9.25146L13.6853 19.7443H16.6007L12.2304 11.9912Z" fill="url(#paint9_linear_218_370)"/>
<path d="M15.1429 32.4989H9.25134L16.6006 19.7441H13.6852L4.5 34.9997H13.6852L15.1429 32.4989Z" fill="url(#paint10_linear_218_370)"/>
<path d="M15.143 32.499L12.2045 27.3721L9.25146 32.499H15.143Z" fill="url(#paint11_linear_218_370)"/>
<defs>
<linearGradient id="paint0_linear_218_370" x1="18.7355" y1="0" x2="18.7355" y2="17.8133" gradientUnits="userSpaceOnUse">
<stop stop-color="#E8E9FE"/>
<stop offset="1" stop-color="#FFEDFF"/>
</linearGradient>
<linearGradient id="paint1_linear_218_370" x1="25.4294" y1="0.0283203" x2="25.4294" y2="15.3665" gradientUnits="userSpaceOnUse">
<stop stop-color="#BFC1FE"/>
<stop offset="1" stop-color="#F1BFFE"/>
</linearGradient>
<linearGradient id="paint2_linear_218_370" x1="29.1891" y1="15.3662" x2="29.1891" y2="17.7844" gradientUnits="userSpaceOnUse">
<stop stop-color="#6371E3"/>
<stop offset="1" stop-color="#9C63E3"/>
</linearGradient>
<linearGradient id="paint3_linear_218_370" x1="16.3642" y1="5.35156" x2="16.3642" y2="10.1196" gradientUnits="userSpaceOnUse">
<stop stop-color="#6371E3"/>
<stop offset="1" stop-color="#9C63E3"/>
</linearGradient>
<linearGradient id="paint4_linear_218_370" x1="32.2202" y1="19.7217" x2="32.2202" y2="27.2668" gradientUnits="userSpaceOnUse">
<stop stop-color="#E8E9FE"/>
<stop offset="1" stop-color="#FFEDFF"/>
</linearGradient>
<linearGradient id="paint5_linear_218_370" x1="34.4918" y1="19.7217" x2="34.4918" y2="24.766" gradientUnits="userSpaceOnUse">
<stop stop-color="#BFC1FE"/>
<stop offset="1" stop-color="#F1BFFE"/>
</linearGradient>
<linearGradient id="paint6_linear_218_370" x1="20.9205" y1="24.7656" x2="20.9205" y2="34.9369" gradientUnits="userSpaceOnUse">
<stop stop-color="#BFC1FE"/>
<stop offset="1" stop-color="#F1BFFE"/>
</linearGradient>
<linearGradient id="paint7_linear_218_370" x1="30.6787" y1="27.2666" x2="30.6787" y2="34.9371" gradientUnits="userSpaceOnUse">
<stop stop-color="#6371E3"/>
<stop offset="1" stop-color="#9C63E3"/>
</linearGradient>
<linearGradient id="paint8_linear_218_370" x1="6.84268" y1="11.9912" x2="6.84268" y2="34.9998" gradientUnits="userSpaceOnUse">
<stop stop-color="#BFC1FE"/>
<stop offset="1" stop-color="#F1BFFE"/>
</linearGradient>
<linearGradient id="paint9_linear_218_370" x1="12.9261" y1="11.9912" x2="12.9261" y2="19.7443" gradientUnits="userSpaceOnUse">
<stop stop-color="#E8E9FE"/>
<stop offset="1" stop-color="#FFEDFF"/>
</linearGradient>
<linearGradient id="paint10_linear_218_370" x1="10.5503" y1="19.7441" x2="10.5503" y2="34.9997" gradientUnits="userSpaceOnUse">
<stop stop-color="#6371E3"/>
<stop offset="1" stop-color="#9C63E3"/>
</linearGradient>
<linearGradient id="paint11_linear_218_370" x1="12.1972" y1="27.3721" x2="12.1972" y2="32.499" gradientUnits="userSpaceOnUse">
<stop stop-color="#E8E9FE"/>
<stop offset="1" stop-color="#FFEDFF"/>
</linearGradient>
</defs>
</svg>
